<?xml version="1.0" standalone="no"?>
<!DOCTYPE svg PUBLIC "-//W3C//DTD SVG 20010904//EN"
 "http://www.w3.org/TR/2001/REC-SVG-20010904/DTD/svg10.dtd">
<svg version="1.0" xmlns="http://www.w3.org/2000/svg"
 width="392.000000pt" height="266.000000pt" viewBox="0 0 392.000000 266.000000"
 preserveAspectRatio="xMidYMid meet">

<g transform="translate(0.000000,266.000000) scale(0.100000,-0.100000)"
fill="#000000" stroke="none">
<path d="M1935 2260 c-171 -27 -323 -151 -381 -311 -45 -126 -37 -266 23 -389
119 -245 424 -342 667 -212 65 34 164 133 198 198 158 296 -27 667 -357 714
-78 11 -80 11 -150 0z m225 -73 c148 -54 253 -180 281 -339 52 -290 -229 -560
-514 -494 -141 33 -246 115 -308 241 -33 67 -34 74 -34 185 0 110 1 118 33
183 100 205 333 301 542 224z"/>
<path d="M1870 2170 c-113 -41 -213 -143 -251 -259 -17 -51 -21 -80 -17 -155
3 -78 9 -100 37 -158 80 -161 264 -259 432 -229 186 32 321 166 352 348 28
174 -68 355 -232 436 -58 28 -75 32 -165 34 -80 2 -112 -2 -156 -17z m43 -234
c49 -20 76 -57 88 -117 19 -91 -17 -176 -87 -205 -20 -8 -70 -14 -124 -14
l-90 0 0 175 0 175 90 0 c55 0 104 -5 123 -14z m383 -20 c29 -29 34 -41 34
-81 0 -40 -5 -52 -34 -81 -30 -30 -40 -34 -85 -34 l-51 0 0 -60 0 -60 -50 0
-50 0 0 175 0 175 101 0 101 0 34 -34z"/>
<path d="M1790 1775 c0 -94 0 -95 24 -95 68 0 104 50 90 125 -8 42 -36 65 -81
65 l-33 0 0 -95z"/>
<path d="M2160 1835 c0 -36 0 -36 38 -33 34 3 37 6 37 33 0 27 -3 30 -37 33
-38 3 -38 3 -38 -33z"/>
<path d="M2910 1083 c-36 -13 -60 -47 -60 -84 0 -39 9 -49 110 -122 32 -24 45
-40 45 -57 0 -37 -44 -49 -101 -28 -42 15 -45 15 -54 -2 -6 -10 -10 -21 -10
-25 0 -12 70 -35 109 -35 60 0 90 15 107 56 25 59 1 99 -92 159 -59 38 -66 47
-58 69 8 22 47 30 83 18 30 -11 51 -1 51 24 0 24 -89 42 -130 27z"/>
<path d="M560 904 l0 -176 93 4 c145 6 198 48 205 161 3 51 0 72 -17 105 -32
62 -78 82 -191 82 l-90 0 0 -176z m184 116 c66 -25 87 -141 36 -195 -28 -30
-82 -48 -130 -43 l-35 3 -3 123 -3 122 55 0 c30 0 66 -4 80 -10z"/>
<path d="M1000 904 l0 -176 94 4 c110 5 140 19 157 77 14 47 7 80 -26 119 -22
26 -23 32 -13 60 11 27 9 35 -8 59 -20 27 -26 28 -113 31 l-91 3 0 -177z m148
124 c33 -33 1 -68 -62 -68 -35 0 -36 1 -36 40 l0 40 43 0 c24 0 48 -5 55 -12z
m32 -128 c24 -24 27 -82 4 -101 -9 -7 -42 -15 -75 -17 l-59 -4 0 71 0 71 55 0
c42 0 60 -5 75 -20z"/>
<path d="M1380 960 c0 -139 12 -179 62 -210 41 -25 119 -27 159 -3 48 29 59
66 59 207 l0 126 -25 0 -25 0 0 -121 c0 -120 0 -121 -29 -150 -31 -31 -53 -35
-96 -19 -40 15 -55 64 -55 185 l0 105 -25 0 -25 0 0 -120z"/>
<path d="M2040 905 l0 -175 24 0 c23 0 25 5 28 48 l3 47 71 5 c40 3 79 11 88
19 45 37 59 117 31 171 -26 51 -50 60 -152 60 l-93 0 0 -175z m185 105 c11
-12 19 -36 19 -55 0 -54 -26 -75 -96 -75 l-58 0 0 75 0 75 58 0 c47 0 63 -4
77 -20z"/>
<path d="M2430 960 c0 -139 12 -179 62 -210 46 -28 126 -27 162 1 48 38 56 67
56 204 l0 125 -24 0 c-24 0 -24 0 -28 -126 -3 -124 -3 -126 -31 -150 -36 -31
-78 -31 -114 0 -28 24 -28 26 -31 150 -4 126 -4 126 -28 126 l-24 0 0 -120z"/>
<path d="M3190 905 l0 -175 25 0 c25 0 25 1 25 80 l0 80 85 0 85 0 0 -80 c0
-79 0 -80 25 -80 l25 0 0 175 0 175 -25 0 c-23 0 -24 -3 -27 -67 l-3 -68 -80
0 -80 0 -3 68 c-3 64 -4 67 -27 67 l-25 0 0 -175z"/>
<path d="M935 569 c-11 -16 -1 -19 13 -3 7 8 8 14 3 14 -5 0 -13 -5 -16 -11z"/>
<path d="M1028 573 c7 -3 16 -2 19 1 4 3 -2 6 -13 5 -11 0 -14 -3 -6 -6z"/>
<path d="M1498 573 c7 -3 16 -2 19 1 4 3 -2 6 -13 5 -11 0 -14 -3 -6 -6z"/>
<path d="M1578 573 c7 -3 16 -2 19 1 4 3 -2 6 -13 5 -11 0 -14 -3 -6 -6z"/>
<path d="M1881 543 c2 -35 2 -35 6 -8 3 16 10 33 16 37 8 5 6 8 -5 8 -14 0
-18 -8 -17 -37z"/>
<path d="M2441 543 c2 -35 2 -35 6 -8 3 16 10 33 16 37 8 5 6 8 -5 8 -14 0
-18 -8 -17 -37z"/>
<path d="M2622 574 c9 -3 19 -13 22 -22 3 -12 4 -12 3 3 -1 12 -10 21 -22 22
-15 1 -15 0 -3 -3z"/>
<path d="M2998 573 c7 -3 16 -2 19 1 4 3 -2 6 -13 5 -11 0 -14 -3 -6 -6z"/>
<path d="M2727 551 c-4 -17 -3 -21 5 -13 5 5 8 16 6 23 -3 8 -7 3 -11 -10z"/>
<path d="M1922 540 c0 -14 2 -19 5 -12 2 6 2 18 0 25 -3 6 -5 1 -5 -13z"/>
</g>
</svg>
